<svg id="Layer_1" data-name="Layer 1" xmlns="http://www.w3.org/2000/svg" xmlns:xlink="http://www.w3.org/1999/xlink" viewBox="0 0 64 64"><defs><style>.cls-1,.cls-2{fill-rule:evenodd;}.cls-1{fill:url(#linear-gradient);}.cls-2{fill:#fff;}</style><linearGradient id="linear-gradient" x1="42.15" y1="60.15" x2="21.88" y2="4.06" gradientUnits="userSpaceOnUse"><stop offset="0" stop-color="#0d2683"/><stop offset="1" stop-color="#496ff6"/></linearGradient></defs><title>Ico</title><path class="cls-1" d="M32.08,64a32,32,0,0,1-11.3-2c-1-.37-2-.83-2.93-1.28a30.66,30.66,0,0,1-6.08-3.89c-.69-.56-1.33-1.16-2-1.77A30.26,30.26,0,0,1,7,52a31.8,31.8,0,0,1-3.89-6.22A32.41,32.41,0,0,1,.68,38.64,31.21,31.21,0,0,1,.13,34.9a33.57,33.57,0,0,1,0-5.21,31.95,31.95,0,0,1,7.27-18.1A30.76,30.76,0,0,1,13,6.22,31.89,31.89,0,0,1,24.26,1,33,33,0,0,1,29.11.13,32.19,32.19,0,0,1,41.62,1.48a30.24,30.24,0,0,1,6.17,2.7,34.88,34.88,0,0,1,3.34,2.19,31.4,31.4,0,0,1,10.27,13c.37.89.68,1.82,1,2.73a29.37,29.37,0,0,1,1.43,6.68,32.1,32.1,0,0,1-1.91,14.51,32.16,32.16,0,0,1-4.11,7.58c-.3.4-.61.81-.93,1.2a31.41,31.41,0,0,1-5.61,5.44,32.6,32.6,0,0,1-4.86,3A32.18,32.18,0,0,1,32.08,64ZM17.77,18.59a10.45,10.45,0,0,0-2.14.35,8.11,8.11,0,0,0-2.39,1.24,7.7,7.7,0,0,0-2.79,8.69,8.07,8.07,0,0,0,10.22,4.89,7.7,7.7,0,0,0,4.22-3.53,12.54,12.54,0,0,1,2-2.76A7.1,7.1,0,0,1,29.26,26a10.27,10.27,0,0,1,1.56-.43,8.49,8.49,0,0,1,1.94-.17,8.12,8.12,0,0,1,2.74.68,14.9,14.9,0,0,1,1.69.86,8.18,8.18,0,0,0,6.64.71,7.77,7.77,0,0,0,4.31-11.29,8,8,0,0,0-14,.41,13.37,13.37,0,0,1-1.48,2.09,7.6,7.6,0,0,1-2.74,1.87,7.82,7.82,0,0,1-3.82.55,8.76,8.76,0,0,1-3.65-1.33,9.76,9.76,0,0,0-1.91-1A8.41,8.41,0,0,0,17.77,18.59ZM48.08,35.73a5,5,0,0,0-.2-1.49A6.16,6.16,0,0,0,42.72,30,5.38,5.38,0,0,0,38,31.59a11.42,11.42,0,0,0-1.44,1.95,7.34,7.34,0,0,1-1.73,1.91,5.47,5.47,0,0,1-2.59,1,5.72,5.72,0,0,1-3.65-.73,16.23,16.23,0,0,0-1.76-.9,5.23,5.23,0,0,0-2.64-.35,5.92,5.92,0,0,0-4.1,2.2,5.74,5.74,0,0,0,0,7.36,5.5,5.5,0,0,0,3.66,2.08,5.74,5.74,0,0,0,6-2.51c.27-.4.49-.83.76-1.23a5.81,5.81,0,0,1,7-2.35,17.57,17.57,0,0,1,1.89,1A5.93,5.93,0,0,0,48.08,35.73ZM30.77,47.06a4,4,0,1,0,4,4A4,4,0,0,0,30.77,47.06Z"/><path class="cls-2" d="M17.77,18.59a8.41,8.41,0,0,1,2.77.37,9.76,9.76,0,0,1,1.91,1,8.76,8.76,0,0,0,3.65,1.33,7.82,7.82,0,0,0,3.82-.55,7.6,7.6,0,0,0,2.74-1.87,13.37,13.37,0,0,0,1.48-2.09,8,8,0,0,1,14-.41,7.77,7.77,0,0,1-4.31,11.29,8.18,8.18,0,0,1-6.64-.71,14.9,14.9,0,0,0-1.69-.86,8.12,8.12,0,0,0-2.74-.68,8.49,8.49,0,0,0-1.94.17,10.27,10.27,0,0,0-1.56.43,7.1,7.1,0,0,0-2.39,1.5,12.54,12.54,0,0,0-2,2.76,7.7,7.7,0,0,1-4.22,3.53,8.07,8.07,0,0,1-10.22-4.89,7.7,7.7,0,0,1,2.79-8.69,8.11,8.11,0,0,1,2.39-1.24A10.45,10.45,0,0,1,17.77,18.59Z"/><path class="cls-2" d="M48.08,35.73A5.93,5.93,0,0,1,39.35,41a17.57,17.57,0,0,0-1.89-1,5.81,5.81,0,0,0-7,2.35c-.27.4-.49.83-.76,1.23a5.74,5.74,0,0,1-6,2.51A5.5,5.5,0,0,1,20.08,44a5.74,5.74,0,0,1,0-7.36,5.92,5.92,0,0,1,4.1-2.2,5.23,5.23,0,0,1,2.64.35,16.23,16.23,0,0,1,1.76.9,5.72,5.72,0,0,0,3.65.73,5.47,5.47,0,0,0,2.59-1,7.34,7.34,0,0,0,1.73-1.91A11.42,11.42,0,0,1,38,31.59,5.38,5.38,0,0,1,42.72,30a6.16,6.16,0,0,1,5.16,4.29A5,5,0,0,1,48.08,35.73Z"/><path class="cls-2" d="M30.77,47.06a4,4,0,1,1-4,4A4,4,0,0,1,30.77,47.06Z"/></svg>