<svg id="Layer_1" data-name="Layer 1" xmlns="http://www.w3.org/2000/svg" viewBox="0 0 64 64"><defs><style>.cls-1{fill:#2a2728;}.cls-2{fill:#fcb813;}</style></defs><title>Ico</title><path class="cls-1" d="M62.32,32.26A30.39,30.39,0,1,0,31.93,62.65,30.4,30.4,0,0,0,62.32,32.26Z"/><path class="cls-2" d="M32,64A32,32,0,1,1,64,32,32,32,0,0,1,32,64ZM32,3.44A28.56,28.56,0,1,0,60.56,32,28.6,28.6,0,0,0,32,3.44Z"/><path class="cls-2" d="M29.2,26.59l8.34,9a1.82,1.82,0,0,1,.55,1.3l-.74,17.82c0,1.4.9,2.52,2.22,2.06C47.45,54,52.26,49.67,54.64,44a2.14,2.14,0,0,0-.35-2.36L47,33.91a3.13,3.13,0,0,1-.86-2.15l0-4.3a2,2,0,0,1,2-2l5.81.07c2.75,0,3-1,2.57-2.13C53.8,15.89,48.9,10.57,41.47,7.76a1.32,1.32,0,0,0-1.79,1.17l-.48,7.58A1.52,1.52,0,0,1,37.67,18H33.61A3.67,3.67,0,0,1,31.18,17L22.94,8.78a1.67,1.67,0,0,0-1.87-.36A25.63,25.63,0,0,0,7.28,23.21a1.68,1.68,0,0,0,1.61,2.22l17.72.1A3.69,3.69,0,0,1,29.2,26.59ZM35,21.85c1.14-1.09,3.85-.56,5.66,1.32s2.91,4.55,1.2,6c-1.22,1-3.21.62-5.19-1.07C34.48,26.18,33.73,23.09,35,21.85Z"/></svg>