<svg id="Layer_1" data-name="Layer 1" xmlns="http://www.w3.org/2000/svg" viewBox="0 0 64 64"><defs><style>.cls-1{fill:#f6b221;}.cls-1,.cls-2,.cls-3{fill-rule:evenodd;}.cls-2{fill:#cdc9c8;}.cls-3{fill:#fff;}</style></defs><title>Ico</title><path class="cls-1" d="M30.41,58.38H23.07a3.68,3.68,0,0,1-1.22-.15c-1.15-.39-1.64-1-1.56-1.89a2.06,2.06,0,0,1,1.94-1.7,7.38,7.38,0,0,1,.94,0c3.85,0,7.71.07,11.57,0,10.65-.23,18.4-5.3,22.91-14.93a23.36,23.36,0,0,0-.28-21.15c-4.6-9.12-12-14-22.25-14.29A2.41,2.41,0,0,1,32.79,2.4,2,2,0,0,1,34.63.27a18,18,0,0,1,7.26.26,25.22,25.22,0,0,1,10,4.66,25.37,25.37,0,0,1,5,4.8,31.23,31.23,0,0,1,6.28,12.63,28.84,28.84,0,0,1-2.88,21,29.88,29.88,0,0,1-7.74,9.23,24.57,24.57,0,0,1-15.13,5.54C35.09,58.42,32.76,58.38,30.41,58.38Z"/><path class="cls-2" d="M24,27.33v10a1.72,1.72,0,0,1-2,2,1.76,1.76,0,0,1-2-2c0-6.74,0-13.48,0-20.22,0-.91-.22-1.28-1.14-1.15a5.15,5.15,0,0,1-1.24,0,1.91,1.91,0,0,1-1.85-2.07A1.91,1.91,0,0,1,17.73,12h.2C20,11.9,20,11.9,20,9.72c0-1.87-.17-3.78.73-5.51A7.47,7.47,0,0,1,27.28.11,26.62,26.62,0,0,1,30,.1a1.92,1.92,0,0,1,2,2,1.89,1.89,0,0,1-2.08,2,15.71,15.71,0,0,1-2.17,0C25.48,3.84,24,6,24,7.67c0,1.18,0,2.36,0,3.54,0,.62.26.76.81.75,1.69,0,3.37,0,5.06,0a1.91,1.91,0,0,1,2.15,2,1.91,1.91,0,0,1-2.12,2c-1.66,0-3.31,0-5,0-.73,0-.95.23-.95.95C24,20.37,24,23.86,24,27.33Z"/><path class="cls-2" d="M42.29,22c1.43-2.49,2.79-4.82,4.13-7.15.33-.57.65-1.14,1-1.71.68-1.1,1.7-1.44,2.59-.89A1.85,1.85,0,0,1,50.49,15c-1.76,3.07-3.48,6.16-5.32,9.17a2.52,2.52,0,0,0,0,3c1.82,3,3.52,6.05,5.27,9.08.69,1.21.54,2.21-.46,2.79s-1.9.26-2.57-.9c-1.49-2.55-3-5.11-4.43-7.65-.2-.35-.31-.9-.74-.9s-.49.53-.67.86c-1.45,2.53-2.89,5.05-4.35,7.58-.7,1.2-1.69,1.58-2.64,1s-1.14-1.66-.43-2.88c1.91-3.3,3.79-6.62,5.71-9.91A1.17,1.17,0,0,0,39.79,25C37.86,21.64,36,18.29,34,15a1.91,1.91,0,0,1,0-2.16,1.68,1.68,0,0,1,1.7-.75,2,2,0,0,1,1.47,1.18l4.58,7.92C41.89,21.4,42,21.63,42.29,22Z"/><path class="cls-3" d="M7.08,39.32a16.54,16.54,0,0,1-4.58-.68,8,8,0,0,1-1.06-.4C.26,37.65-.15,36.91.14,36a2.2,2.2,0,0,1,2.57-1.41c1.25.23,2.48.56,3.73.79A5.74,5.74,0,0,0,10.07,35c2-1,2.13-2.91.61-4.13-2.76-2.24-5.32-4.73-8.09-6.95A6.13,6.13,0,0,1,.26,17.11a6.65,6.65,0,0,1,5.65-5,15,15,0,0,1,6.34.37,3.87,3.87,0,0,1,1.65.81A2.13,2.13,0,0,1,14.4,16c-.47.89-1.13,1.14-2.27.83A20.11,20.11,0,0,0,8.3,16a4.3,4.3,0,0,0-3.36,1,2.16,2.16,0,0,0,0,3.49c2.82,2.44,5.64,4.89,8.48,7.3a6.17,6.17,0,0,1,.1,9.54A8.41,8.41,0,0,1,7.08,39.32Z"/><path class="cls-1" d="M12.39,58c-2.56.1-2.56.1-2.56,2.66,0,.45,0,.9,0,1.35A1.82,1.82,0,0,1,7.9,64a1.85,1.85,0,0,1-1.8-1.89c0-1,0-2,0-3,0-.72-.29-1-1-1-1,0-1.92,0-2.88,0a1.87,1.87,0,1,1,0-3.74c1,0,1.92,0,2.88,0,.76,0,1-.32,1-1.07,0-1,0-1.94,0-2.91A1.77,1.77,0,0,1,8,48.46c1.2,0,1.78.6,1.82,1.89a25.7,25.7,0,0,1,0,2.91c-.06.86.29,1.11,1.07,1.07s1.79,0,2.68,0c1.4,0,2.14.76,2.08,2s-.76,1.71-2.12,1.69Z"/></svg>