<svg id="Layer_1" data-name="Layer 1" xmlns="http://www.w3.org/2000/svg" viewBox="0 0 64 64"><defs><style>.cls-1{fill:#5f96ce;fill-rule:evenodd;}.cls-2{fill:#054e86;}.cls-3{fill:#0062a1;}.cls-4{fill:#fff;}</style></defs><title>Ico</title><path class="cls-1" d="M32,22.59a9.41,9.41,0,0,0-8.17,14.08l16.32-9.39A9.42,9.42,0,0,0,32,22.59Z"/><path class="cls-1" d="M13.09,32a18.91,18.91,0,0,1,35.29-9.46L59.77,16a5.36,5.36,0,0,0-2.06-2Q46.34,7.41,35,.86a5.59,5.59,0,0,0-6.06.06C25.9,2.7,10.79,11.36,6.29,14a5.28,5.28,0,0,0-2.76,4.85V45.18A5.7,5.7,0,0,0,4.19,48l11.4-6.56A18.84,18.84,0,0,1,13.09,32Z"/><path class="cls-2" d="M23.83,36.67a9.42,9.42,0,0,0,16.38-.06l-8.13-4.69Z"/><path class="cls-2" d="M32,50.91a18.94,18.94,0,0,1-16.41-9.5L4.19,48A5.41,5.41,0,0,0,6.29,50c4.5,2.61,19.61,11.27,22.62,13a5.59,5.59,0,0,0,6.06.06Q46.34,56.57,57.72,50A5.38,5.38,0,0,0,59.81,48L48.43,41.38A18.92,18.92,0,0,1,32,50.91Z"/><path class="cls-3" d="M60.47,18.82a5.6,5.6,0,0,0-.7-2.85l-27.69,16L59.81,48a5.7,5.7,0,0,0,.66-2.79ZM51,33.07H48.88v2.16H46.71V33.07H44.54V30.9h2.17V28.73h2.17V30.9H51Zm7.9,0H56.78v2.16H54.61V33.07H52.45V30.9h2.16V28.73h2.17V30.9h2.16Z"/><polygon class="cls-4" points="56.78 28.73 54.61 28.73 54.61 30.9 52.45 30.9 52.45 33.06 54.61 33.06 54.61 35.23 56.78 35.23 56.78 33.06 58.94 33.06 58.94 30.9 56.78 30.9 56.78 28.73"/><polygon class="cls-4" points="48.88 28.73 46.71 28.73 46.71 30.9 44.54 30.9 44.54 33.06 46.71 33.06 46.71 35.23 48.88 35.23 48.88 33.06 51.04 33.06 51.04 30.9 48.88 30.9 48.88 28.73"/><path class="cls-4" d="M40.21,36.61a9.41,9.41,0,1,1-.06-9.33l8.23-4.74a18.91,18.91,0,1,0,0,18.84Z"/></svg>