<svg id="Layer_1" data-name="Layer 1" xmlns="http://www.w3.org/2000/svg" viewBox="0 0 64 64"><defs><style>.cls-1{fill:#af90c3;}.cls-2{fill:#2f2863;}.cls-3{fill:#fff;}</style></defs><title>Ico</title><rect class="cls-1" width="64" height="64"/><rect class="cls-2" x="6.53" y="6.52" width="50.95" height="50.93"/><path class="cls-3" d="M35.77,43.06H32.18a1.55,1.55,0,0,1-1-.29,1.9,1.9,0,0,1-.57-.72l-1.51-4.27h-8.9l-1.51,4.27a1.91,1.91,0,0,1-.53.7,1.53,1.53,0,0,1-1,.31H13.59l8.74-22.35h4.73ZM21.35,34.57H28l-2.42-6.83c-.14-.37-.29-.8-.45-1.27s-.32-1-.48-1.56c-.13.57-.28,1.1-.44,1.58s-.3.91-.44,1.27Z"/><path class="cls-3" d="M43.42,26.92a7.79,7.79,0,0,1,2.81.5A6.15,6.15,0,0,1,49.9,31.1a8.59,8.59,0,0,1,.51,3.07c0,.31,0,.58,0,.79a1.42,1.42,0,0,1-.16.48.5.5,0,0,1-.29.25,1.09,1.09,0,0,1-.48.08H39.9A5,5,0,0,0,41.18,39a3.91,3.91,0,0,0,2.81,1,4.81,4.81,0,0,0,1.51-.22,6.3,6.3,0,0,0,1.13-.47c.33-.15.61-.32.88-.45a1.63,1.63,0,0,1,.77-.21.91.91,0,0,1,.78.37l1.23,1.54a6.72,6.72,0,0,1-1.49,1.3,7.92,7.92,0,0,1-1.69.81,9.9,9.9,0,0,1-1.77.43,13.11,13.11,0,0,1-1.73.1,8.76,8.76,0,0,1-3.11-.54A6.79,6.79,0,0,1,38,41.12a7.44,7.44,0,0,1-1.69-2.66,9.87,9.87,0,0,1-.62-3.67,8.87,8.87,0,0,1,.53-3.06,7.54,7.54,0,0,1,1.53-2.49,7.45,7.45,0,0,1,2.44-1.69,8,8,0,0,1,3.24-.63m.08,3a3.19,3.19,0,0,0-2.39.87A4.42,4.42,0,0,0,40,33.24h6.63A3.94,3.94,0,0,0,46.42,32a2.79,2.79,0,0,0-.56-1.08,2.82,2.82,0,0,0-1-.72,3.18,3.18,0,0,0-1.4-.27"/></svg>