<svg id="Layer_1" data-name="Layer 1" xmlns="http://www.w3.org/2000/svg" viewBox="0 0 64 64"><defs><style>.cls-1{fill:#9753a0;}.cls-2{fill:#3c2461;}.cls-3{fill:#fff;}</style></defs><title>Ico</title><rect class="cls-1" width="64" height="64"/><rect class="cls-2" x="6.53" y="6.52" width="50.95" height="50.93"/><path class="cls-3" d="M25.32,20.75a12.6,12.6,0,0,1,3.9.53,7.44,7.44,0,0,1,2.72,1.47A5.79,5.79,0,0,1,33.53,25a7.83,7.83,0,0,1,.53,2.9,8,8,0,0,1-.55,3,6.19,6.19,0,0,1-1.63,2.34,7.68,7.68,0,0,1-2.73,1.53,12.25,12.25,0,0,1-3.83.54H22.19v7.91H18V20.75Zm0,11.3a6.07,6.07,0,0,0,2-.29,3.78,3.78,0,0,0,1.43-.82,3.36,3.36,0,0,0,.84-1.31,4.87,4.87,0,0,0,.28-1.71,4.52,4.52,0,0,0-.28-1.64A3.41,3.41,0,0,0,28.75,25a3.71,3.71,0,0,0-1.41-.79,7.11,7.11,0,0,0-2-.27H22.19v8.07Z"/><path class="cls-3" d="M40,30.05a6.76,6.76,0,0,1,1.78-2.25A3.77,3.77,0,0,1,44.23,27a3,3,0,0,1,1.77.49l-.25,2.87a.73.73,0,0,1-.22.4.68.68,0,0,1-.4.11,4.63,4.63,0,0,1-.69-.07,5.67,5.67,0,0,0-.9-.08,3.08,3.08,0,0,0-1.13.19,2.67,2.67,0,0,0-.89.53,3.69,3.69,0,0,0-.71.85,8.66,8.66,0,0,0-.56,1.14v9.82H36.41V27.28h2.25a1.27,1.27,0,0,1,.83.21,1.25,1.25,0,0,1,.31.75Z"/></svg>