<svg id="Layer_1" data-name="Layer 1" xmlns="http://www.w3.org/2000/svg" xmlns:xlink="http://www.w3.org/1999/xlink" viewBox="0 0 64 64"><defs><style>.cls-1{fill:url(#linear-gradient);}.cls-2{fill:#fff;}</style><linearGradient id="linear-gradient" y1="32" x2="64" y2="32" gradientUnits="userSpaceOnUse"><stop offset="0" stop-color="#7452a1"/><stop offset="1" stop-color="#5f50a1"/></linearGradient></defs><title>Ico</title><path class="cls-1" d="M64,30.37v3.26c-3,.28-4.84,2.52-5.93,6A35.63,35.63,0,0,0,57,50.84a6.37,6.37,0,0,1-6.24,6.66H13.29a6.37,6.37,0,0,1-6.23-6.66A36.23,36.23,0,0,0,5.94,39.67C4.85,36.15,3,33.91,0,33.63V30.37c3-.28,4.85-2.51,5.94-6A36.23,36.23,0,0,0,7.06,13.16,6.38,6.38,0,0,1,13.29,6.5H50.71A6.38,6.38,0,0,1,57,13.16a35.63,35.63,0,0,0,1.12,11.17C59.16,27.86,61,30.09,64,30.37Z"/><path class="cls-2" d="M36.59,31.26v-.15a6.07,6.07,0,0,0,4.95-5.91c0-4.09-3.23-6.76-8.17-6.76H22.52a.25.25,0,0,0-.24.25V45.32a.24.24,0,0,0,.24.24H33.43c5.91,0,9.47-2.89,9.47-7.66C42.9,34.29,40.36,31.67,36.59,31.26Zm-10-9.38h5.74c3.13,0,4.89,1.39,4.89,3.91,0,2.69-2,4.19-5.79,4.19H26.59Zm5.95,20.24H26.59V33.2h5.7c4.09,0,6.21,1.5,6.21,4.43S36.43,42.12,32.54,42.12Z"/></svg>