<svg id="Layer_1" data-name="Layer 1" xmlns="http://www.w3.org/2000/svg" xmlns:xlink="http://www.w3.org/1999/xlink" viewBox="0 0 64 64"><defs><style>.cls-1{fill:url(#linear-gradient);}.cls-2{fill:#e34f26;}.cls-3{fill:#ed662b;}.cls-4{fill:#fff;}.cls-5{fill:#ebeaea;}</style><linearGradient id="linear-gradient" x1="20.87" y1="15.41" x2="41.24" y2="-4.96" gradientUnits="userSpaceOnUse"><stop offset="0" stop-color="#e7e6e5"/><stop offset="1" stop-color="#fff"/></linearGradient></defs><title>Ico</title><path class="cls-1" d="M19.34,0h2.83V8.46H19.34V5.63H16.76V8.46H13.92V0h2.84V2.79h2.58ZM23.4,2.8h2.49V8.46h2.83V2.8h2.49V0H23.4ZM37.21,3,35.39,0h-3V8.46h2.77V4.27l1.95,3h.05l1.95-3V8.46H42V0H39Zm9,2.69V0H43.38V8.46h6.8V5.66Z"/><g id="Guides_to_delete" data-name="Guides to delete"><polygon class="cls-2" points="13.46 58.85 9.33 12.54 54.67 12.54 50.54 58.86 31.99 64 13.46 58.85"/><polygon class="cls-3" points="32 16.33 32 60.07 47 55.91 50.53 16.33 32 16.33"/><polygon class="cls-4" points="17.78 22.01 19.3 39.18 38.99 39.18 38.33 46.55 32 48.27 25.67 46.55 25.24 41.82 19.54 41.82 20.36 50.94 32 54.17 43.64 50.94 45.2 33.5 24.5 33.5 23.98 27.69 45.7 27.69 45.72 27.69 46.23 22.01 17.78 22.01"/><polygon class="cls-5" points="32 22.01 17.78 22.01 19.3 39.18 32 39.18 32 33.5 24.5 33.5 23.98 27.69 32 27.69 32 22.01"/><polygon class="cls-5" points="32 48.26 32 48.27 25.67 46.55 25.24 41.82 19.54 41.82 20.36 50.94 32 54.17 32 54.17 32 48.26"/></g></svg>