<svg id="Layer_1" data-name="Layer 1" xmlns="http://www.w3.org/2000/svg" viewBox="0 0 64 64"><defs><style>.cls-1{fill:#fff;}</style></defs><title>ico</title><path class="cls-1" d="M28.21,30.82s3.72-.29,3.72-4.83-3-6.76-6.9-6.76H12.36V44.62H25s7.74.26,7.74-7.49C32.77,37.13,33.11,30.82,28.21,30.82ZM17.94,23.74H25s1.73,0,1.73,2.64-1,3-2.17,3H17.94Zm6.74,16.37H17.94V33.32H25s2.57,0,2.57,3.49C27.6,39.78,25.68,40.08,24.68,40.11ZM43.1,25.69c-9.37,0-9.36,9.75-9.36,9.75s-.65,9.71,9.36,9.71c0,0,8.34.5,8.34-6.75H47.15s.14,2.73-3.91,2.73A4,4,0,0,1,39,36.71H51.58S53,25.69,43.1,25.69Zm3.81,7.63h-8s.52-3.91,4.28-3.91S46.91,33.32,46.91,33.32Zm1-12.6h-10v3.13h10Z"/></svg>