<svg id="Layer_1" data-name="Layer 1" xmlns="http://www.w3.org/2000/svg" viewBox="0 0 64 64"><defs><style>.cls-1{fill:#de4c36;}</style></defs><title>Ico</title><path class="cls-1" d="M62.79,29.15,34.85,1.21a4.12,4.12,0,0,0-5.83,0L23.22,7l7.36,7.36a4.89,4.89,0,0,1,6.2,6.24l7.09,7.09a4.9,4.9,0,1,1-2.94,2.77l-6.61-6.62V41.26a5.26,5.26,0,0,1,1.3.93,4.91,4.91,0,1,1-5.33-1.07V23.55a4.73,4.73,0,0,1-1.61-1.07,4.91,4.91,0,0,1-1.06-5.36L20.37,9.86,1.21,29a4.12,4.12,0,0,0,0,5.83L29.15,62.79a4.12,4.12,0,0,0,5.83,0L62.79,35a4.12,4.12,0,0,0,0-5.83"/></svg>