<svg id="Layer_1" data-name="Layer 1" xmlns="http://www.w3.org/2000/svg" viewBox="0 0 64 64"><defs><style>.cls-1{fill:#fff;}.cls-2{fill:#53c1de;}</style></defs><title>Ico</title><path class="cls-1" d="M0,31.9c0,4.83,4.72,9.34,12.16,11.89-1.49,7.48-.27,13.5,3.81,15.85s10.42.75,16.34-4.43c5.77,5,11.61,6.92,15.68,4.57s5.45-8.86,3.92-16.58C59.66,40.64,64,36.79,64,31.9c0-4.72-4.73-8.81-12.07-11.34,1.65-8,.25-13.91-4-16.36C43.85,1.84,38,3.9,32.09,9,26,3.59,20.16,1.94,15.92,4.39c-4.08,2.36-5.25,8.5-3.76,16.12C5,23,0,27.19,0,31.9Z"/><path class="cls-2" d="M50.38,23.07q-.89-.3-1.83-.57c.1-.43.2-.84.28-1.25,1.38-6.72.48-12.14-2.61-13.92s-7.82.07-12.71,4.33c-.48.41-.95.85-1.42,1.3-.31-.3-.63-.59-.94-.87C26,7.53,20.87,5.61,17.78,7.4s-3.84,6.81-2.59,13.18c.12.61.26,1.24.42,1.88q-1.09.32-2.1.66c-6,2.1-9.87,5.39-9.87,8.8S7.77,39,14,41.12c.49.17,1,.33,1.53.48-.17.69-.32,1.37-.44,2-1.19,6.26-.26,11.23,2.69,12.93S26,56.51,31,52.16c.4-.35.79-.71,1.19-1.1.51.5,1,1,1.53,1.4,4.84,4.16,9.61,5.84,12.56,4.13s4-7.1,2.75-13.6c-.1-.5-.21-1-.34-1.52l1.06-.33c6.51-2.16,10.75-5.65,10.75-9.22s-4-6.73-10.1-8.85Z"/><path class="cls-1" d="M49,38.83c-.31.11-.63.21-1,.3a57.1,57.1,0,0,0-2.88-7.2,57.65,57.65,0,0,0,2.77-7.09c.58.16,1.14.34,1.69.53,5.26,1.81,8.46,4.49,8.46,6.55S54.59,37,49,38.83Zm-2.33,4.63A20.44,20.44,0,0,1,46.9,51c-.34,1.83-1,3-1.86,3.53-1.79,1-5.62-.31-9.75-3.87-.48-.4-.95-.84-1.43-1.3a57,57,0,0,0,4.76-6,55.08,55.08,0,0,0,7.7-1.19c.12.47.22.93.31,1.38ZM23,54.31c-1.75.62-3.14.64-4,.15-1.8-1-2.54-5-1.53-10.38q.18-.91.42-1.89a55.68,55.68,0,0,0,7.66,1.11,58.94,58.94,0,0,0,4.88,6c-.37.35-.73.68-1.09,1a20.64,20.64,0,0,1-6.36,4Zm-8.2-15.49A20.72,20.72,0,0,1,8.19,35.3c-1.41-1.21-2.12-2.41-2.12-3.38,0-2.07,3.09-4.71,8.23-6.5.63-.22,1.28-.43,2-.62A59.46,59.46,0,0,0,19,32a57.79,57.79,0,0,0-2.8,7.28c-.49-.14-1-.29-1.41-.44Zm2.75-18.71C16.5,14.65,17.21,10.54,19,9.5s6.1.47,10.54,4.41l.85.78a60.35,60.35,0,0,0-4.84,6A60.09,60.09,0,0,0,18,21.86c-.15-.59-.28-1.18-.39-1.75Zm24.52,6.06c-.56-1-1.14-1.92-1.73-2.85,1.81.23,3.55.54,5.18.91a51.21,51.21,0,0,1-1.82,4.89c-.51-1-1.06-2-1.63-2.95Zm-10-9.74c1.12,1.21,2.24,2.57,3.35,4-1.12-.06-2.24-.08-3.38-.08s-2.24,0-3.34.07c1.1-1.45,2.23-2.8,3.37-4ZM22,26.18c-.56,1-1.1,2-1.61,2.94-.7-1.67-1.31-3.32-1.8-4.92,1.62-.36,3.35-.66,5.15-.88-.6.93-1.18,1.89-1.74,2.86Zm1.79,14.51a50.87,50.87,0,0,1-5.24-.84c.51-1.62,1.12-3.3,1.85-5,.51,1,1,2,1.61,2.94h0c.57,1,1.17,2,1.78,2.92Zm8.34,6.89C31,46.34,29.86,45,28.74,43.49c1.09,0,2.2.06,3.32.06s2.31,0,3.43-.07a50.45,50.45,0,0,1-3.33,4.1ZM43.75,34.75a51,51,0,0,1,1.91,5c-1.65.37-3.43.67-5.31.9.59-.94,1.18-1.9,1.75-2.89s1.13-2,1.65-3ZM40,36.54c-.89,1.54-1.81,3-2.73,4.4-1.69.12-3.43.19-5.21.19s-3.49-.06-5.14-.17c-1-1.4-1.9-2.88-2.78-4.4h0C23.26,35,22.45,33.5,21.71,32c.74-1.53,1.55-3.07,2.42-4.58h0q1.32-2.29,2.76-4.39c1.69-.13,3.42-.2,5.17-.2h0c1.76,0,3.5.07,5.19.2.94,1.39,1.86,2.85,2.74,4.37s1.71,3.07,2.45,4.56C41.7,33.47,40.88,35,40,36.54ZM45,9.43c1.91,1.1,2.65,5.52,1.45,11.33-.07.37-.16.75-.25,1.13a57,57,0,0,0-7.6-1.2,56.8,56.8,0,0,0-4.81-6c.44-.42.87-.82,1.31-1.2C39.3,9.84,43.22,8.4,45,9.43Z"/><path class="cls-2" d="M32.06,26.84A5.08,5.08,0,1,1,27,31.92a5.08,5.08,0,0,1,5.07-5.08"/></svg>