<svg id="Layer_1" data-name="Layer 1" xmlns="http://www.w3.org/2000/svg" viewBox="0 0 64 64"><defs><style>.cls-1{fill:#dd4814;}.cls-1,.cls-2{fill-rule:evenodd;}.cls-2{fill:#fff;}</style></defs><title>Ico</title><path class="cls-1" d="M31.93,64A32,32,0,1,1,64,32.7,31.95,31.95,0,0,1,31.93,64Zm-7-21.75a12.65,12.65,0,0,1,0-20.56l-3.18-5.3a18.51,18.51,0,0,0-7.63,10.47,1.31,1.31,0,0,0,.38,1,5.83,5.83,0,0,1,0,8.16,1.37,1.37,0,0,0-.34,1.58,18.73,18.73,0,0,0,4.93,7.9c.78.74,1.66,1.39,2.6,2.15Zm-1.22,6.34c.1.11.13.18.18.2a18.1,18.1,0,0,0,12.71,1.3,1,1,0,0,0,.56-.63,5.92,5.92,0,0,1,7.29-4.3,1.21,1.21,0,0,0,1-.22,18,18,0,0,0,5.15-11c.07-.64-.16-.86-.76-.86-1.51,0-3,0-4.52,0-.71,0-1,.2-1.06.92A12.36,12.36,0,0,1,32.49,44.38a13.89,13.89,0,0,1-5.82-1.13C25.66,45.07,24.67,46.84,23.69,48.59Zm3-27.84,1-.39A12.45,12.45,0,0,1,44,28.91c.16.66.1,1.62.51,1.91s1.37.1,2.08.11H50.5a2.26,2.26,0,0,0,.07-.47,18,18,0,0,0-5.14-11.41,1.2,1.2,0,0,0-1-.21,6,6,0,0,1-7.29-4.19,1.39,1.39,0,0,0-.83-.8,17,17,0,0,0-7-.35,16.77,16.77,0,0,0-5.68,1.82ZM10.16,36.35a4.27,4.27,0,0,0,4.39-4.29A4.36,4.36,0,0,0,10.2,27.6,4.46,4.46,0,0,0,5.81,32,4.36,4.36,0,0,0,10.16,36.35ZM42.85,17.48a4.39,4.39,0,0,0,4.44-4.31,4.44,4.44,0,0,0-4.35-4.42,4.37,4.37,0,0,0-.09,8.73Zm0,37.76a4.4,4.4,0,0,0,4.43-4.4,4.47,4.47,0,0,0-4.4-4.36,4.37,4.37,0,0,0-4.35,4.38A4.31,4.31,0,0,0,42.86,55.24Z"/><path class="cls-2" d="M24.91,42.25l-3.23,5.4c-.94-.76-1.82-1.41-2.6-2.15a18.73,18.73,0,0,1-4.93-7.9A1.37,1.37,0,0,1,14.49,36a5.83,5.83,0,0,0,0-8.16,1.31,1.31,0,0,1-.38-1A18.51,18.51,0,0,1,21.7,16.39l3.18,5.3A12.65,12.65,0,0,0,24.91,42.25Z"/><path class="cls-2" d="M23.69,48.59c1-1.75,2-3.52,3-5.34a13.89,13.89,0,0,0,5.82,1.13A12.36,12.36,0,0,0,44.22,34c.11-.72.35-1,1.06-.92,1.51.06,3,0,4.52,0,.6,0,.83.22.76.86a18,18,0,0,1-5.15,11,1.21,1.21,0,0,1-1,.22,5.92,5.92,0,0,0-7.29,4.3,1,1,0,0,1-.56.63,18.1,18.1,0,0,1-12.71-1.3C23.82,48.77,23.79,48.7,23.69,48.59Z"/><path class="cls-2" d="M26.67,20.75l-3-5.43a16.77,16.77,0,0,1,5.68-1.82,17,17,0,0,1,7,.35,1.39,1.39,0,0,1,.83.8,6,6,0,0,0,7.29,4.19,1.2,1.2,0,0,1,1,.21,18,18,0,0,1,5.14,11.41,2.26,2.26,0,0,1-.07.47H46.61c-.71,0-1.6.23-2.08-.11s-.35-1.25-.51-1.91a12.45,12.45,0,0,0-16.35-8.55Z"/><path class="cls-2" d="M10.16,36.35A4.36,4.36,0,0,1,5.81,32,4.46,4.46,0,0,1,10.2,27.6a4.36,4.36,0,0,1,4.35,4.46A4.27,4.27,0,0,1,10.16,36.35Z"/><path class="cls-2" d="M42.85,17.48a4.37,4.37,0,0,1,.09-8.73,4.44,4.44,0,0,1,4.35,4.42A4.39,4.39,0,0,1,42.85,17.48Z"/><path class="cls-2" d="M42.86,55.24a4.31,4.31,0,0,1-4.32-4.38,4.37,4.37,0,0,1,4.35-4.38,4.47,4.47,0,0,1,4.4,4.36A4.4,4.4,0,0,1,42.86,55.24Z"/></svg>