<svg id="Layer_1" data-name="Layer 1" xmlns="http://www.w3.org/2000/svg" viewBox="0 0 64 64"><defs><style>.cls-1{fill:#fff;}</style></defs><title>ico</title><path class="cls-1" d="M40.63,62.81a31.87,31.87,0,0,1-15.68.4,1.86,1.86,0,0,0,.58-1.31c0-1.49,0-5.33,0-5.33a18.92,18.92,0,0,1-2.86.2,6.15,6.15,0,0,1-6.22-4.2A7.35,7.35,0,0,0,13.37,49c-.7-.45-.86-1,0-1.13,3.75-.71,4.71,4.23,7.22,5a7.08,7.08,0,0,0,5.23-.42,5.41,5.41,0,0,1,2.15-3.5c-6.37-.61-10.15-2.81-12.11-6.35l-.21-.39-.49-1.13-.15-.4a19.15,19.15,0,0,1-.88-6.15c0-4.08,1.28-5.62,3-7.79a10.9,10.9,0,0,1,.47-7.83s2.76-.57,8,3.14c2.83-1.2,10.36-1.3,13.93-.26,2.19-1.44,6.19-3.48,7.8-2.91.44.7,1.38,2.74.58,7.22.54,1,3.39,3.08,3.4,9a23.29,23.29,0,0,1-.69,5.59l-.24.8s-.13.37-.28.73l-.17.4c-1.89,4.13-5.77,5.67-12,6.31,2,1.27,2.62,2.86,2.62,7.18S40.36,61,40.37,62A1.73,1.73,0,0,0,40.63,62.81Z"/></svg>