<svg id="Layer_1" data-name="Layer 1" xmlns="http://www.w3.org/2000/svg" viewBox="0 0 64 64"><defs><style>.cls-1,.cls-4{fill:#fff;}.cls-2{fill:#d86728;}.cls-2,.cls-3,.cls-4{fill-rule:evenodd;}.cls-3{fill:#4d2214;}</style></defs><title>Ico</title><path d="M59.1,17.23a2,2,0,0,0-.87-1.52L32.94,1a1.75,1.75,0,0,0-.87-.2,1.89,1.89,0,0,0-.87.2L5.77,15.85a2,2,0,0,0-.87,1.52v29a2.09,2.09,0,0,0,.87,1.54L31.08,63a1.71,1.71,0,0,0,.86.2,1.67,1.67,0,0,0,.85-.2L58.23,48.15a2,2,0,0,0,.87-1.51V17.23"/><path class="cls-1" d="M31.94,64a3.2,3.2,0,0,1-1.57-.39L5.53,48.79A3.39,3.39,0,0,1,4,46.09V17.64A3.35,3.35,0,0,1,5.54,15L30.51.39A3.17,3.17,0,0,1,32.07,0a3.13,3.13,0,0,1,1.55.39L58.45,14.81A3.36,3.36,0,0,1,60,17.5V46.37a3.35,3.35,0,0,1-1.55,2.69l-25,14.56A3.06,3.06,0,0,1,31.94,64Zm.13-62.61a1.91,1.91,0,0,0-.85.19l-25,14.57a2,2,0,0,0-.85,1.49V46.09a2,2,0,0,0,.85,1.51L31.09,62.42a1.81,1.81,0,0,0,.85.19,1.63,1.63,0,0,0,.84-.19l25-14.56a2,2,0,0,0,.85-1.49V17.5A2,2,0,0,0,57.76,16L32.92,1.58A1.78,1.78,0,0,0,32.07,1.39Z"/><path class="cls-2" d="M8,18.83a1.35,1.35,0,0,1,.6-1L31.46,4.44a1.33,1.33,0,0,1,1.2,0L55.43,17.67a1.36,1.36,0,0,1,.6,1V45.17a1.36,1.36,0,0,1-.6,1L32.54,59.57a1.3,1.3,0,0,1-1.2,0L8.56,46a1.37,1.37,0,0,1-.59-1Z"/><path class="cls-3" d="M31.86,59.57a6.81,6.81,0,0,0,0-.78l0-23.13a3.94,3.94,0,0,1,.28-1.32l2.4-5.53a2.21,2.21,0,0,1,.9-.94L55,18.45c.34-.17.65-.33.68-.36a.24.24,0,0,0,.05-.13.43.43,0,0,0-.05-.12,5.85,5.85,0,0,0-.64-.4l-22.42-13a1.33,1.33,0,0,0-1.2,0L8.54,17.77a1.33,1.33,0,0,0-.6,1v26.1A1.35,1.35,0,0,0,8.54,46L30.91,59.31a2.81,2.81,0,0,0,.75.36A.27.27,0,0,0,31.86,59.57Z"/><path class="cls-4" d="M38.07,29.75l-3.28,9.09c-.15.41-.27.93-1.14.93h-3.4a.79.79,0,0,1-.78-.55L26,29.75s-.75,12.17-.79,12.5c-.07.7.08,1.26-.92,1.26H19.94c-.48,0-.41-.32-.37-.88,0-.33,1.73-21.53,1.73-21.53a.52.52,0,0,1,.52-.58h4.79a1.1,1.1,0,0,1,1.15.93C28,22.12,32,33.82,32,33.82l4.37-12.74a.89.89,0,0,1,.86-.56c1,0,4.51,0,4.7,0a.81.81,0,0,1,.83.83c.11,1.14,1.64,21.2,1.67,21.41s.06.75-.51.75H39.36c-.31,0-.51-.2-.51-.69C38.85,42,38.07,29.75,38.07,29.75Z"/></svg>