<svg id="Layer_1" data-name="Layer 1" xmlns="http://www.w3.org/2000/svg" xmlns:xlink="http://www.w3.org/1999/xlink" viewBox="0 0 64 64"><defs><style>.cls-1{fill:url(#linear-gradient);}.cls-2{fill:url(#linear-gradient-2);}.cls-3{fill:url(#linear-gradient-3);}.cls-4{fill:url(#linear-gradient-4);}.cls-5{fill:url(#linear-gradient-5);}.cls-6{fill:url(#linear-gradient-6);}.cls-7{fill:url(#linear-gradient-7);}</style><linearGradient id="linear-gradient" x1="-210.67" y1="119.14" x2="-180.04" y2="113.19" gradientTransform="translate(281.59 -112.52) scale(1.19)" gradientUnits="userSpaceOnUse"><stop offset="0" stop-color="#116168"/><stop offset="0.5" stop-color="#00aaab"/><stop offset="1" stop-color="#58bdc3"/></linearGradient><linearGradient id="linear-gradient-2" x1="-189.23" y1="147.37" x2="-184.85" y2="97.34" gradientTransform="translate(281.59 -112.52) scale(1.19)" gradientUnits="userSpaceOnUse"><stop offset="0" stop-color="#137d82"/><stop offset="0.5" stop-color="#1eb4b3"/><stop offset="1" stop-color="#80ced0"/></linearGradient><linearGradient id="linear-gradient-3" x1="-214.56" y1="98.18" x2="-226.11" y2="133.72" gradientTransform="translate(281.59 -112.52) scale(1.19)" gradientUnits="userSpaceOnUse"><stop offset="0" stop-color="#99cad2"/><stop offset="0.5" stop-color="#72adb2"/><stop offset="1" stop-color="#337e80"/></linearGradient><linearGradient id="linear-gradient-4" x1="-239.7" y1="138.74" x2="-220.32" y2="132.45" gradientTransform="translate(281.59 -112.52) scale(1.19)" gradientUnits="userSpaceOnUse"><stop offset="0" stop-color="#21626f"/><stop offset="0.5" stop-color="#1b7d84"/><stop offset="1" stop-color="#08a3a5"/></linearGradient><linearGradient id="linear-gradient-5" x1="-224.55" y1="110.79" x2="-249.35" y2="133.92" gradientTransform="translate(281.59 -112.52) scale(1.19)" gradientUnits="userSpaceOnUse"><stop offset="0" stop-color="#0b7c80"/><stop offset="0.5" stop-color="#0a8d8f"/><stop offset="1" stop-color="#0eb0b0"/></linearGradient><linearGradient id="linear-gradient-6" x1="-201.61" y1="139.02" x2="-188.93" y2="128.76" gradientTransform="translate(281.59 -112.52) scale(1.19)" gradientUnits="userSpaceOnUse"><stop offset="0" stop-color="#138a8f"/><stop offset="0.5" stop-color="#0f7d81"/><stop offset="1" stop-color="#1d5a64"/></linearGradient><linearGradient id="linear-gradient-7" x1="-182.42" y1="126.4" x2="-195.9" y2="117.98" gradientTransform="translate(281.59 -112.52) scale(1.19)" gradientUnits="userSpaceOnUse"><stop offset="0" stop-color="#266a77"/><stop offset="0.5" stop-color="#0b9398"/><stop offset="1" stop-color="#00a0a2"/></linearGradient></defs><title>Ico</title><path class="cls-1" d="M44.79,3.34H64L38.33,50.77S34,38.21,32.14,33.72"/><path class="cls-2" d="M49.53,62H64V3.34C64,34,51.11,62,49.53,62Z"/><path class="cls-3" d="M38.33,50.77h-12L0,3.34C4.68,2.75,14,2,18.65,1.56Z"/><path class="cls-4" d="M15.3,32C11.33,47.7,0,62.45,0,62.44c13.14,0,16-1.92,16-2.92V33.23C15.75,32.85,15.53,32.45,15.3,32Z"/><path class="cls-5" d="M0,3.34v59.1C7.19,50.55,11.38,42.77,15.09,31.69,6,15.53,0,3.34,0,3.34Z"/><polyline class="cls-6" points="48.53 59.66 49.53 61.99 49.53 31.19 48.53 32.86"/><path class="cls-7" d="M49.48,31.26V61.89l0,.1C50.55,62,64,28.84,64,3.34,64,3.34,55.79,20.45,49.48,31.26Z"/></svg>