<svg id="Layer_1" data-name="Layer 1" xmlns="http://www.w3.org/2000/svg" viewBox="0 0 64 64"><defs><style>.cls-1{fill:#faab32;}.cls-2{fill:#583819;}.cls-3{fill:#fff;}</style></defs><title>Ico</title><rect class="cls-1" width="64" height="64"/><rect class="cls-2" x="6.53" y="6.53" width="50.94" height="50.95"/><path class="cls-3" d="M40.06,43.49H36.47a1.55,1.55,0,0,1-1-.28,1.67,1.67,0,0,1-.56-.73l-1.51-4.27H24.52L23,42.48a1.75,1.75,0,0,1-.54.7,1.48,1.48,0,0,1-1,.31H17.88l8.73-22.35h4.73ZM25.65,35H32.3l-2.41-6.85c-.15-.36-.31-.78-.46-1.26s-.32-1-.48-1.55c-.13.56-.28,1.09-.44,1.57s-.3.91-.45,1.27Z"/><path class="cls-3" d="M46.11,23.09a2.26,2.26,0,0,1-.21,1,3,3,0,0,1-.57.81,2.85,2.85,0,0,1-.85.56,2.79,2.79,0,0,1-1,.2,2.5,2.5,0,0,1-1-.2,2.68,2.68,0,0,1-1.39-1.37,2.26,2.26,0,0,1-.21-1,2.35,2.35,0,0,1,.21-1,2.6,2.6,0,0,1,.56-.82,2.36,2.36,0,0,1,.83-.55,2.5,2.5,0,0,1,1-.2,2.79,2.79,0,0,1,1,.2,2.64,2.64,0,0,1,.85.55,3,3,0,0,1,.57.82,2.35,2.35,0,0,1,.21,1m-.5,20.4H41.35V27.61h4.26Z"/></svg>