<svg id="Layer_1" data-name="Layer 1" xmlns="http://www.w3.org/2000/svg" viewBox="0 0 64 64"><defs><style>.cls-1{fill:#89bae4;}.cls-2{fill:#292561;}.cls-3{fill:#fff;}</style></defs><title>Ico</title><rect class="cls-1" width="64" height="64"/><rect class="cls-2" x="6.52" y="6.53" width="50.95" height="50.94"/><path class="cls-3" d="M22.1,35.37v7.69H17.47V20.7H25a13,13,0,0,1,4,.54,7.54,7.54,0,0,1,2.75,1.5A6,6,0,0,1,33.34,25a8.06,8.06,0,0,1,.51,2.89,8.16,8.16,0,0,1-.54,3,6,6,0,0,1-1.63,2.36,7.58,7.58,0,0,1-2.76,1.53,12.61,12.61,0,0,1-3.9.55Zm0-3.55H25a4.27,4.27,0,0,0,3.19-1,4,4,0,0,0,1-2.87A4.37,4.37,0,0,0,29,26.39a3,3,0,0,0-.76-1.17,3.67,3.67,0,0,0-1.3-.75A6.07,6.07,0,0,0,25,24.21H22.1Z"/><path class="cls-3" d="M45.42,30.43a1.09,1.09,0,0,1-.35.38.85.85,0,0,1-.48.12,1.52,1.52,0,0,1-.63-.15l-.73-.34c-.26-.11-.57-.22-.91-.33a4.38,4.38,0,0,0-1.2-.15,2.65,2.65,0,0,0-1.6.42A1.36,1.36,0,0,0,39,31.5a1.11,1.11,0,0,0,.32.8,2.62,2.62,0,0,0,.86.56,9.71,9.71,0,0,0,1.21.45l1.39.45a14.23,14.23,0,0,1,1.4.58,5,5,0,0,1,1.21.8,3.58,3.58,0,0,1,.84,1.18A3.62,3.62,0,0,1,46.52,38a5.33,5.33,0,0,1-.43,2.13,4.72,4.72,0,0,1-1.24,1.69,5.78,5.78,0,0,1-2,1.11,9.5,9.5,0,0,1-4.41.25,7.49,7.49,0,0,1-1.53-.42,7.94,7.94,0,0,1-1.35-.62,5.9,5.9,0,0,1-1.1-.76l1-1.59a1.26,1.26,0,0,1,.43-.43,1.22,1.22,0,0,1,.66-.16,1.32,1.32,0,0,1,.7.2l.73.41a8.45,8.45,0,0,0,.94.42,4.41,4.41,0,0,0,1.36.19,3.7,3.7,0,0,0,1.07-.14,2,2,0,0,0,.73-.38,1.39,1.39,0,0,0,.4-.54,1.5,1.5,0,0,0,.13-.62,1.18,1.18,0,0,0-.32-.85,3,3,0,0,0-.87-.58,7.58,7.58,0,0,0-1.23-.45c-.45-.13-.93-.28-1.41-.45a11.85,11.85,0,0,1-1.4-.58,4.75,4.75,0,0,1-1.21-.86,3.75,3.75,0,0,1-.86-1.27,4.37,4.37,0,0,1-.34-1.83A4.58,4.58,0,0,1,35.3,30a4.28,4.28,0,0,1,1.16-1.57,5.68,5.68,0,0,1,1.91-1.08,8.31,8.31,0,0,1,2.66-.4,8.11,8.11,0,0,1,3.07.56,6.57,6.57,0,0,1,2.29,1.45Z"/></svg>