<svg id="Layer_1" data-name="Layer 1" xmlns="http://www.w3.org/2000/svg" viewBox="0 0 64 64"><defs><style>.cls-1{fill:#ff4713;}</style></defs><title>Ico</title><path class="cls-1" d="M42.52,35.09C41.14,28.65,34.34,21,26.83,19.36c-7.82-1.72-13-1.76-19.17,2.25A40.58,40.58,0,0,0,0,27.8v10c4-8.4,13.07-15.44,23.23-12.9,17.26,4.31,14.5,16.15,12.43,21C31.93,54.48,18.24,58.21,14,50c-4.58-9,5.64-10.45,5.64-10.45S17,42,20.34,45.34c2.31,2.31,6.7.21,8.23-3.84,1.34-3.54-1.55-8.44-7.86-9-5.28-.45-13.22,3.46-14,11.31-.76,7.43,2.65,10.51,7.61,13.8s15.53,4.51,21.58-1.25c6.56-6.26,8.48-12.68,6.65-21.29M0,0V19.6a32.92,32.92,0,0,1,5.64-4c11-6.21,20.71-3.14,26.42-1.37A31.34,31.34,0,0,1,51.22,31c3.56,8.26.48,24-11.54,32-.53.35-1,.65-1.58,1H64V0ZM0,53.5v7.55a10.23,10.23,0,0,0,1.18.83A12.06,12.06,0,0,1,0,61.32V64H11.27c-.83-.44-1.6-.89-2.27-1.33A28.3,28.3,0,0,1,0,53.5Z"/></svg>