<svg id="Layer_1" data-name="Layer 1" xmlns="http://www.w3.org/2000/svg" xmlns:xlink="http://www.w3.org/1999/xlink" viewBox="0 0 64 64"><defs><style>.cls-1{fill:#22bcbd;}.cls-2{fill:url(#linear-gradient);}.cls-3{fill:url(#linear-gradient-2);}.cls-4{fill:url(#linear-gradient-3);}.cls-5{fill:url(#linear-gradient-4);}.cls-10,.cls-6{opacity:0.9;}.cls-6{fill:url(#linear-gradient-5);}.cls-7{fill:url(#linear-gradient-6);}.cls-8{fill:url(#linear-gradient-7);}.cls-9{fill:url(#linear-gradient-8);}.cls-10{fill:#007d7d;}</style><linearGradient id="linear-gradient" x1="32.68" y1="18.87" x2="32.68" y2="32.17" gradientUnits="userSpaceOnUse"><stop offset="0" stop-color="#30bdc0"/><stop offset="0.43" stop-color="#1ab8ba"/><stop offset="1" stop-color="#00b3b3"/></linearGradient><linearGradient id="linear-gradient-2" x1="25.8" y1="11.19" x2="33.8" y2="25.81" gradientUnits="userSpaceOnUse"><stop offset="0" stop-color="#009898"/><stop offset="1" stop-color="#055"/></linearGradient><linearGradient id="linear-gradient-3" x1="7.32" y1="9.77" x2="41.22" y2="1.15" gradientUnits="userSpaceOnUse"><stop offset="0" stop-color="#30bdc0"/><stop offset="0.27" stop-color="#2ababd"/><stop offset="0.63" stop-color="#19b2b4"/><stop offset="1" stop-color="#00a7a7"/></linearGradient><linearGradient id="linear-gradient-4" x1="48.46" y1="14.27" x2="43.16" y2="22.13" gradientUnits="userSpaceOnUse"><stop offset="0.85" stop-color="#007978"/><stop offset="0.9" stop-color="#007373"/><stop offset="0.96" stop-color="#006363"/><stop offset="1" stop-color="#055"/></linearGradient><linearGradient id="linear-gradient-5" x1="42.9" y1="13.21" x2="42.9" y2="32.61" gradientUnits="userSpaceOnUse"><stop offset="0" stop-color="#016b6b"/><stop offset="1" stop-color="#007978"/></linearGradient><linearGradient id="linear-gradient-6" x1="10.61" y1="54.03" x2="57.14" y2="33.12" gradientUnits="userSpaceOnUse"><stop offset="0" stop-color="#007978"/><stop offset="1" stop-color="#055"/></linearGradient><linearGradient id="linear-gradient-7" x1="7.48" y1="52.02" x2="39.58" y2="65.91" gradientUnits="userSpaceOnUse"><stop offset="0" stop-color="#30bdc0"/><stop offset="0.6" stop-color="#10aeaf"/><stop offset="1" stop-color="#00a7a7"/></linearGradient><linearGradient id="linear-gradient-8" x1="52.89" y1="56.3" x2="42.74" y2="41.24" xlink:href="#linear-gradient-4"/></defs><title>Ico</title><polygon class="cls-1" points="41.48 63.98 11.93 63.98 6.5 51 22.3 45.48 7.87 32.01 22.69 18.65 6.5 13.03 11.93 0 41.48 0 57.5 32 41.48 63.98"/><polygon class="cls-2" points="7.87 32.01 57.5 32 22.69 18.65 7.87 32.01"/><polygon class="cls-3" points="57.5 32 28.3 13.03 6.5 13.03 22.69 18.65 57.5 32"/><polygon class="cls-4" points="28.3 13.03 6.5 13.03 11.93 0 41.48 0 28.3 13.03"/><polygon class="cls-5" points="28.3 13.03 41.48 0 57.5 32 28.3 13.03"/><polygon class="cls-6" points="57.5 32 28.3 31.99 28.3 13.03 57.5 32"/><polygon class="cls-7" points="57.5 32 28.3 50.98 6.5 50.98 22.69 45.36 57.5 32"/><polygon class="cls-8" points="28.3 50.98 6.5 50.98 11.93 64 41.48 64 28.3 50.98"/><polygon class="cls-9" points="28.3 50.98 41.48 64 57.5 32 28.3 50.98"/><polygon class="cls-10" points="57.5 32 28.3 32.01 28.3 50.98 57.5 32"/></svg>