<svg id="Layer_1" data-name="Layer 1" xmlns="http://www.w3.org/2000/svg" xmlns:xlink="http://www.w3.org/1999/xlink" viewBox="0 0 64 64"><defs><style>.cls-1,.cls-3{fill:url(#linear-gradient);}.cls-1,.cls-2{clip-rule:evenodd;}.cls-2,.cls-6{fill:url(#linear-gradient-2);}.cls-3,.cls-6{fill-rule:evenodd;}.cls-4{clip-path:url(#clip-path);}.cls-5{fill:url(#linear-gradient-4);}.cls-7{clip-path:url(#clip-path-2);}.cls-8{fill:url(#linear-gradient-6);}</style><linearGradient id="linear-gradient" x1="18.3" y1="46.95" x2="50.36" y2="14.89" gradientUnits="userSpaceOnUse"><stop offset="0" stop-color="#e7e6e5"/><stop offset="1" stop-color="#fff"/></linearGradient><linearGradient id="linear-gradient-2" x1="9.37" y1="54.63" x2="54.65" y2="9.36" xlink:href="#linear-gradient"/><clipPath id="clip-path"><path class="cls-1" d="M44.44,40.82a1.93,1.93,0,0,0,1.62.69c1.31,0,3.5-.84,7-4.55,0,0-3.73,8.44-11.43,13L37.39,46.4l-.11-.08-4.62,4.89S22.18,50.29,17.79,44a4.43,4.43,0,0,0,1.42.27,1.6,1.6,0,0,0,1.85-1.76V27.65A1.59,1.59,0,0,0,19.37,26c-1,0-2.54.73-4.59,2.79a30.41,30.41,0,0,0-6,8.59s-1.24-6,5.2-13.36,11.28-10,16.48-11.38c0,0-4.12,2.4-4.12,6a5.25,5.25,0,0,0,.38,2.24,1.33,1.33,0,0,0,1.2.84,1.82,1.82,0,0,0,1-.33V40.94a3.65,3.65,0,0,0,.39.68,2.9,2.9,0,0,0,2.38,1.18c2,0,4.7-2.32,4.7-2.32V24.67a5.35,5.35,0,0,0-2.42-4.2s2.61-.16,3.89.84a22.71,22.71,0,0,1,12.24-6.72,68.85,68.85,0,0,0-5.58,7.48c-.23,0-.27,4.7-.23,9.4C44.29,36,44.36,40.52,44.44,40.82Z"/></clipPath><linearGradient id="linear-gradient-4" x1="9.65" y1="53.16" x2="52.04" y2="10.77" xlink:href="#linear-gradient"/><clipPath id="clip-path-2"><path class="cls-2" d="M53.68,10.38A30.62,30.62,0,0,0,1.42,32,30.62,30.62,0,1,0,53.68,10.38ZM0,32A32,32,0,1,1,32,64,32,32,0,0,1,0,32Z"/></clipPath><linearGradient id="linear-gradient-6" x1="-0.46" y1="64.46" x2="64.46" y2="-0.46" xlink:href="#linear-gradient"/></defs><title>Ico</title><path class="cls-3" d="M44.44,40.82a1.93,1.93,0,0,0,1.62.69c1.31,0,3.5-.84,7-4.55,0,0-3.73,8.44-11.43,13L37.39,46.4l-.11-.08-4.62,4.89S22.18,50.29,17.79,44a4.43,4.43,0,0,0,1.42.27,1.6,1.6,0,0,0,1.85-1.76V27.65A1.59,1.59,0,0,0,19.37,26c-1,0-2.54.73-4.59,2.79a30.41,30.41,0,0,0-6,8.59s-1.24-6,5.2-13.36,11.28-10,16.48-11.38c0,0-4.12,2.4-4.12,6a5.25,5.25,0,0,0,.38,2.24,1.33,1.33,0,0,0,1.2.84,1.82,1.82,0,0,0,1-.33V40.94a3.65,3.65,0,0,0,.39.68,2.9,2.9,0,0,0,2.38,1.18c2,0,4.7-2.32,4.7-2.32V24.67a5.35,5.35,0,0,0-2.42-4.2s2.61-.16,3.89.84a22.71,22.71,0,0,1,12.24-6.72,68.85,68.85,0,0,0-5.58,7.48c-.23,0-.27,4.7-.23,9.4C44.29,36,44.36,40.52,44.44,40.82Z"/><g class="cls-4"><rect class="cls-5" x="8.2" y="12.22" width="45.29" height="39.49"/></g><path class="cls-6" d="M53.68,10.38A30.62,30.62,0,0,0,1.42,32,30.62,30.62,0,1,0,53.68,10.38ZM0,32A32,32,0,1,1,32,64,32,32,0,0,1,0,32Z"/><g class="cls-7"><rect class="cls-8" x="-0.47" y="-0.45" width="64.93" height="64.91"/></g></svg>