<svg id="Layer_1" data-name="Layer 1" xmlns="http://www.w3.org/2000/svg" xmlns:xlink="http://www.w3.org/1999/xlink" viewBox="0 0 64 64"><defs><style>.cls-1{fill:#1f62ae;}.cls-2{fill:#3c9bd5;}.cls-3{fill:url(#linear-gradient);}.cls-4{fill:#fff;}.cls-5{fill:url(#linear-gradient-2);}.cls-6{fill:url(#linear-gradient-3);}.cls-7{fill:url(#linear-gradient-4);}.cls-11,.cls-8{opacity:0.05;}.cls-11,.cls-9{fill:#231f20;}.cls-10{fill:url(#linear-gradient-5);}</style><linearGradient id="linear-gradient" x1="23.08" y1="13.18" x2="40.91" y2="-4.64" gradientUnits="userSpaceOnUse"><stop offset="0" stop-color="#e7e6e5"/><stop offset="1" stop-color="#fff"/></linearGradient><linearGradient id="linear-gradient-2" x1="25.34" y1="38.97" x2="25.34" y2="27.96" gradientUnits="userSpaceOnUse"><stop offset="0.39" stop-color="#d0d2d3" stop-opacity="0"/><stop offset="1" stop-color="#d0d2d3"/></linearGradient><linearGradient id="linear-gradient-3" x1="39.1" y1="33.48" x2="39.1" y2="22.03" xlink:href="#linear-gradient-2"/><linearGradient id="linear-gradient-4" x1="18.72" y1="43.88" x2="45.17" y2="43.88" xlink:href="#linear-gradient"/><linearGradient id="linear-gradient-5" x1="17.5" y1="24.83" x2="46.22" y2="24.83" xlink:href="#linear-gradient"/></defs><title>Ico</title><polygon class="cls-1" points="50.56 59 32 64 13.44 59 9.16 12.6 54.84 12.6 50.56 59"/><polygon class="cls-2" points="32 16.36 32 60.01 32.04 60.02 47.06 55.98 50.53 16.36 32 16.36"/><path class="cls-3" d="M18.44,0H25.5V3h-4V5.78h4V8.54H18.44ZM28.51,3c.94.94,1.44,1.39,2.8,2.76h-2.8V8.54h7.05V5.78L32.74,3h2.82V0h-7Zm17-3h-7V3c.94.94,1.44,1.39,2.81,2.76H38.5V8.54h7V5.78L42.74,3h2.81Z"/><polygon class="cls-4" points="31.98 27.96 18.7 33.49 19.14 38.97 31.98 33.48 45.64 27.64 46.22 22.03 31.98 27.96"/><polygon class="cls-5" points="18.7 33.49 19.14 38.97 31.98 33.48 31.98 27.96 18.7 33.49"/><polygon class="cls-6" points="46.22 22.03 31.98 27.96 31.98 33.48 45.64 27.64 46.22 22.03"/><polygon class="cls-7" points="18.72 33.49 19.16 38.97 38.87 39.03 38.42 46.34 31.94 48.16 25.7 46.59 25.33 42.05 19.54 42.05 20.29 50.81 32 54.27 43.65 50.87 45.17 33.49 18.72 33.49"/><g class="cls-8"><polygon class="cls-9" points="31.98 33.49 18.7 33.49 19.14 38.97 31.98 39.01 31.98 33.49"/><polygon class="cls-9" points="31.98 48.14 31.92 48.16 25.69 46.59 25.31 42.05 19.51 42.05 20.27 50.81 31.98 54.27 31.98 48.14"/></g><polygon class="cls-10" points="17.5 22.03 46.22 22.03 45.64 27.64 18.2 27.64 17.5 22.03"/><polygon class="cls-11" points="31.98 22.03 17.5 22.03 18.2 27.64 31.98 27.64 31.98 22.03"/></svg>