<svg id="Layer_1" data-name="Layer 1" xmlns="http://www.w3.org/2000/svg" viewBox="0 0 64 64"><defs><style>.cls-1{fill:#fff;}.cls-1,.cls-2,.cls-3{fill-rule:evenodd;}.cls-2{fill:#f19333;}.cls-3{fill:#006aa2;}</style></defs><title>Ico</title><path class="cls-1" d="M56.7,36.06C56.7,43.92,50,50.3,41.77,50.3S26.84,43.92,26.84,36.06s6.68-14.25,14.93-14.25S56.7,28.19,56.7,36.06Z"/><path class="cls-2" d="M39,17.5H12.55c-4.75.36-4,6.7-.49,6.65,3.25,0,8.71,0,12.58,0-5.57,5.24-18,13.2-23.41,18.36-2.1,2-2,7.82,4.13,6.47,2.31-1.27,12.75-9.79,14.18-11.24.73,18.1,21.1,26.59,36.39,16,8.14-5.65,10.94-20,4.58-27.06C55.49,21,46.36,15.42,35.42,6.3c-1.74-1.43-7-.7-5.2,3.56A90.54,90.54,0,0,0,39,17.5Zm2.68,6.37c7.53,0,13.72,5.55,13.72,12.31S49.18,48.49,41.65,48.49,27.93,43,27.93,36.18s6.13-12.31,13.72-12.31Z"/><path class="cls-3" d="M42.13,27.84a8.29,8.29,0,0,1,8.51,8,8.29,8.29,0,0,1-8.51,8,8.29,8.29,0,0,1-8.51-8,8.29,8.29,0,0,1,8.51-8Z"/></svg>