<svg id="Layer_1" data-name="Layer 1" xmlns="http://www.w3.org/2000/svg" viewBox="0 0 64 64"><defs><style>.cls-1{fill:#e14196;}.cls-2{fill:#3e1326;}.cls-3{fill:#fff;}</style></defs><title>Ico</title><rect class="cls-1" width="64" height="64"/><rect class="cls-2" x="6.53" y="6.53" width="50.96" height="50.94"/><rect class="cls-3" x="20.97" y="21.02" width="4.66" height="22.35"/><path class="cls-3" d="M40.41,43.37a1,1,0,0,1-1-.74L39,41.24A8,8,0,0,1,36.85,43,6,6,0,0,1,34,43.6a5,5,0,0,1-2.34-.54,5.19,5.19,0,0,1-1.84-1.57,7.54,7.54,0,0,1-1.21-2.55,12.23,12.23,0,0,1-.43-3.46,11,11,0,0,1,.48-3.3A7.84,7.84,0,0,1,30,29.55a6.16,6.16,0,0,1,2.16-1.73,6,6,0,0,1,2.8-.64,5.42,5.42,0,0,1,2.18.38,5.88,5.88,0,0,1,1.61,1.05V20.4H43v23Zm-5-3.07a3.88,3.88,0,0,0,1.89-.43,5.31,5.31,0,0,0,1.44-1.28v-7a3.44,3.44,0,0,0-1.3-1A4.06,4.06,0,0,0,36,30.36a3.16,3.16,0,0,0-1.4.3,2.75,2.75,0,0,0-1.1.92,4.49,4.49,0,0,0-.7,1.59,9.76,9.76,0,0,0-.24,2.31,11.21,11.21,0,0,0,.2,2.26,4.38,4.38,0,0,0,.57,1.49,2.31,2.31,0,0,0,.92.82,2.77,2.77,0,0,0,1.2.25"/></svg>