<svg id="Layer_1" data-name="Layer 1" xmlns="http://www.w3.org/2000/svg" viewBox="0 0 64 64"><defs><style>.cls-1{fill:#5c2d91;}.cls-2,.cls-4{fill:#fff;}.cls-3{fill:#f2f2f2;}.cls-4{opacity:0.1;isolation:isolate;}</style></defs><title>Ico</title><ellipse class="cls-1" cx="32.01" cy="32" rx="31.99" ry="32"/><path class="cls-2" d="M7.43,37.25a1.43,1.43,0,0,1,0-2.85,1.37,1.37,0,0,1,1,.43,1.42,1.42,0,0,1,.42,1,1.38,1.38,0,0,1-.42,1A1.42,1.42,0,0,1,7.43,37.25Z"/><path class="cls-2" d="M27.29,37H24.67L15.3,22.46a6.11,6.11,0,0,1-.58-1.14h-.08a19,19,0,0,1,.1,2.5V37H12.61V18.77h2.77L24.5,33.05c.38.59.62,1,.74,1.22h.05a18.44,18.44,0,0,1-.13-2.68V18.77h2.13Z"/><path class="cls-2" d="M41.7,37H32V18.77h9.24V20.7H34.19v6.06h6.58v1.92H34.19V35h7.52Z"/><path class="cls-2" d="M56,20.7H50.71V37H48.58V20.7H43.34V18.77H56Z"/><path class="cls-3" d="M26.14,49.4a4.9,4.9,0,0,1-2.32.49A3.73,3.73,0,0,1,21,48.74a4.29,4.29,0,0,1-1.08-3,4.46,4.46,0,0,1,1.21-3.26,4.09,4.09,0,0,1,3.08-1.24,5.09,5.09,0,0,1,2,.35v1a4,4,0,0,0-2-.5,3,3,0,0,0-2.35,1,3.65,3.65,0,0,0-.9,2.58,3.45,3.45,0,0,0,.84,2.45A2.87,2.87,0,0,0,24,49a4.12,4.12,0,0,0,2.19-.56Z"/><path class="cls-3" d="M30.23,49.89A2.75,2.75,0,0,1,28.1,49a3.1,3.1,0,0,1-.79-2.23,3.24,3.24,0,0,1,.83-2.36,3,3,0,0,1,2.23-.85,2.67,2.67,0,0,1,2.08.83,3.24,3.24,0,0,1,.75,2.29,3.15,3.15,0,0,1-.81,2.3A2.83,2.83,0,0,1,30.23,49.89Zm.07-5.47a1.83,1.83,0,0,0-1.46.63,2.55,2.55,0,0,0-.54,1.74,2.38,2.38,0,0,0,.54,1.68,1.83,1.83,0,0,0,1.46.62,1.74,1.74,0,0,0,1.42-.6,2.55,2.55,0,0,0,.5-1.72,2.61,2.61,0,0,0-.5-1.73A1.73,1.73,0,0,0,30.3,44.42Z"/><path class="cls-3" d="M37.87,44.72a1.16,1.16,0,0,0-.73-.19,1.22,1.22,0,0,0-1,.58,2.73,2.73,0,0,0-.41,1.58v3.06h-1v-6h1V45h0a2.11,2.11,0,0,1,.63-1,1.42,1.42,0,0,1,.94-.35,1.54,1.54,0,0,1,.57.08Z"/><path class="cls-3" d="M43.73,47H39.5A2.21,2.21,0,0,0,40,48.54a1.88,1.88,0,0,0,1.42.54,3,3,0,0,0,1.86-.67v.9a3.45,3.45,0,0,1-2.09.57,2.53,2.53,0,0,1-2-.82,3.83,3.83,0,0,1,.06-4.58,2.56,2.56,0,0,1,2-.88,2.26,2.26,0,0,1,1.82.76,3.17,3.17,0,0,1,.64,2.12Zm-1-.81a2,2,0,0,0-.4-1.29,1.39,1.39,0,0,0-1.1-.46,1.54,1.54,0,0,0-1.15.49,2.18,2.18,0,0,0-.59,1.27Z"/><path class="cls-4" d="M9.37,9.37A32,32,0,1,0,54.6,54.63Z"/></svg>