<?xml version="1.0" encoding="utf-8"?>
<!-- Generator: Adobe Illustrator 23.1.0, SVG Export Plug-In . SVG Version: 6.00 Build 0)  -->
<svg version="1.1" id="Layer_1" xmlns="http://www.w3.org/2000/svg" xmlns:xlink="http://www.w3.org/1999/xlink" x="0px" y="0px"
	 viewBox="0 0 64 64" style="enable-background:new 0 0 64 64;" xml:space="preserve">
<style type="text/css">
	.st0{fill:#E14196;}
	.st1{fill:#3E1326;}
	.st2{fill:#FFFFFF;}
	.st3{fill:#AF90C3;}
	.st4{fill:#2F2863;}
	.st5{fill:#9753A0;}
	.st6{fill:#3C2461;}
	.st7{fill-rule:evenodd;clip-rule:evenodd;fill:#FFFFFF;}
	.st8{fill-rule:evenodd;clip-rule:evenodd;fill:#F19333;}
	.st9{fill-rule:evenodd;clip-rule:evenodd;fill:#006AA2;}
	.st10{fill:#464646;}
	.st11{fill:#64AEE0;}
	.st12{fill-rule:evenodd;clip-rule:evenodd;}
	.st13{fill-rule:evenodd;clip-rule:evenodd;fill:#999999;}
	.st14{fill:#89BAE4;}
	.st15{fill:#292561;}
	.st16{fill:#FAAB32;}
	.st17{fill:#583819;}
	.st18{fill:#2A2728;}
	.st19{fill:#FCB813;}
	.st20{fill-rule:evenodd;clip-rule:evenodd;fill:#D86728;}
	.st21{fill-rule:evenodd;clip-rule:evenodd;fill:#4D2214;}
	.st22{fill-rule:evenodd;clip-rule:evenodd;fill:#F6B221;}
	.st23{fill-rule:evenodd;clip-rule:evenodd;fill:#CDC9C8;}
	.st24{fill:#22BCBD;}
	.st25{fill:url(#XMLID_2_);}
	.st26{fill:url(#XMLID_3_);}
	.st27{fill:url(#XMLID_4_);}
	.st28{fill:url(#XMLID_5_);}
	.st29{opacity:0.9;fill:url(#XMLID_6_);}
	.st30{fill:url(#XMLID_7_);}
	.st31{fill:url(#XMLID_8_);}
	.st32{fill:url(#XMLID_9_);}
	.st33{opacity:0.9;fill:#007D7D;}
	.st34{fill:url(#SVGID_1_);}
	.st35{fill:url(#SVGID_2_);}
	.st36{fill:url(#SVGID_3_);}
	.st37{fill:url(#SVGID_4_);}
	.st38{fill:url(#SVGID_5_);}
	.st39{fill:url(#SVGID_6_);}
	.st40{fill:url(#SVGID_7_);}
	.st41{fill:url(#SVGID_8_);}
	.st42{fill-rule:evenodd;clip-rule:evenodd;fill:#5F96CE;}
	.st43{fill:#054E86;}
	.st44{fill:#0062A1;}
	.st45{fill-rule:evenodd;clip-rule:evenodd;fill:#957AB6;}
	.st46{fill:#2C2165;}
	.st47{fill:#402D86;}
	.st48{clip-path:url(#SVGID_11_);fill:url(#SVGID_12_);}
	.st49{clip-path:url(#SVGID_15_);fill:url(#SVGID_16_);}
	.st50{fill:url(#SVGID_17_);}
	.st51{fill:#E5A229;}
	.st52{fill:#F1BE21;}
	.st53{fill:#EBEAEA;}
	.st54{fill:url(#SVGID_18_);}
	.st55{fill:url(#SVGID_19_);}
	.st56{fill:#1F62AE;}
	.st57{fill:#3C9BD5;}
	.st58{fill:url(#SVGID_20_);}
	.st59{fill:url(#SVGID_21_);}
	.st60{fill:url(#SVGID_22_);}
	.st61{fill:url(#SVGID_23_);}
	.st62{opacity:0.05;}
	.st63{fill:#231F20;}
	.st64{fill:url(#SVGID_24_);}
	.st65{opacity:0.05;fill:#231F20;}
	.st66{fill:url(#SVGID_25_);}
	.st67{fill:#E34F26;}
	.st68{fill:#ED662B;}
	.st69{fill-rule:evenodd;clip-rule:evenodd;fill:url(#SVGID_26_);}
	.st70{fill:#FF4713;}
	.st71{fill:url(#SVGID_27_);}
	.st72{fill:url(#SVGID_28_);}
	.st73{fill:url(#SVGID_29_);}
	.st74{fill:url(#SVGID_30_);}
	.st75{fill:url(#SVGID_31_);}
	.st76{fill:url(#SVGID_32_);}
	.st77{fill:url(#SVGID_33_);}
	.st78{fill:url(#SVGID_34_);}
	.st79{fill:url(#SVGID_35_);}
	.st80{fill:url(#SVGID_36_);}
	.st81{fill:#2E76BB;}
	.st82{fill-rule:evenodd;clip-rule:evenodd;fill:#DD4814;}
	.st83{fill:#5C2D91;}
	.st84{fill:#F2F2F2;}
	.st85{opacity:0.1;fill:#FFFFFF;enable-background:new    ;}
	.st86{fill:#ED1A3B;}
	.st87{fill:#DE4C36;}
	.st88{fill-rule:evenodd;clip-rule:evenodd;fill:#21609B;}
	.st89{fill:#3178C6;}
	.st90{fill:#53C1DE;}
	.st91{fill:url(#SVGID_37_);}
	.st92{fill:url(#SVGID_38_);}
	.st93{fill:url(#SVGID_39_);}
	.st94{fill-rule:evenodd;clip-rule:evenodd;fill:#333333;}
</style>
<g>
	<g>
		<linearGradient id="SVGID_1_" gradientUnits="userSpaceOnUse" x1="45.85" y1="8.2514" x2="18.9127" y2="54.4296">
			<stop  offset="0.3" style="stop-color:#3E863D"/>
			<stop  offset="0.5" style="stop-color:#55934F"/>
			<stop  offset="0.8" style="stop-color:#5AAD45"/>
		</linearGradient>
		<path class="st34" d="M30.49,0.4L5.4,14.88c-0.94,0.54-1.52,1.54-1.52,2.62v28.98c0,1.08,0.58,2.08,1.52,2.62l25.09,14.49
			c0.94,0.54,2.09,0.54,3.03,0L58.6,49.11c0.93-0.54,1.51-1.54,1.51-2.62V17.51c0-1.08-0.58-2.08-1.52-2.62L33.52,0.4
			C33.05,0.14,32.52,0,32,0C31.47,0,30.95,0.14,30.49,0.4"/>
		<linearGradient id="SVGID_2_" gradientUnits="userSpaceOnUse" x1="19.8379" y1="54.0992" x2="42.927" y2="14.2592">
			<stop  offset="0.57" style="stop-color:#3E863D"/>
			<stop  offset="0.72" style="stop-color:#619857"/>
			<stop  offset="1" style="stop-color:#76AC64"/>
		</linearGradient>
		<path class="st35" d="M4.51,48.32c0.24,0.31,0.54,0.58,0.89,0.78l21.52,12.43l3.58,2.06c0.54,0.31,1.15,0.44,1.75,0.4
			c0.2-0.02,0.4-0.05,0.6-0.11L59.3,15.44c-0.2-0.22-0.44-0.4-0.7-0.56L42.17,5.4l-8.68-5c-0.25-0.14-0.51-0.24-0.79-0.32
			L4.51,48.32z"/>
		<linearGradient id="SVGID_3_" gradientUnits="userSpaceOnUse" x1="9.6941" y1="31.9859" x2="51.4445" y2="31.9859">
			<stop  offset="0.16" style="stop-color:#6BBF47"/>
			<stop  offset="0.38" style="stop-color:#79B461"/>
			<stop  offset="0.47" style="stop-color:#75AC64"/>
			<stop  offset="0.7" style="stop-color:#659E5A"/>
			<stop  offset="0.9" style="stop-color:#3E863D"/>
		</linearGradient>
		<path class="st36" d="M31.7,0.02c-0.42,0.04-0.83,0.17-1.21,0.39L5.48,14.84l26.97,49.13c0.38-0.05,0.74-0.18,1.08-0.37
			l25.08-14.49c0.77-0.45,1.3-1.21,1.46-2.07L32.58,0.07c-0.2-0.04-0.4-0.06-0.61-0.06c-0.08,0-0.17,0-0.25,0.01"/>
	</g>
	<g>
		<path class="st2" d="M31.69,51.48c-0.18,0-0.35-0.05-0.51-0.14l-1.62-0.96c-0.24-0.14-0.12-0.18-0.04-0.21
			c0.32-0.11,0.39-0.14,0.73-0.33c0.04-0.02,0.08-0.01,0.12,0.01l1.25,0.74c0.05,0.02,0.11,0.02,0.15,0l4.86-2.81
			c0.05-0.03,0.07-0.08,0.07-0.13v-5.61c0-0.06-0.03-0.11-0.08-0.13l-4.86-2.8c-0.05-0.03-0.1-0.03-0.15,0l-4.86,2.8
			c-0.05,0.03-0.08,0.08-0.08,0.13v5.61c0,0.05,0.03,0.1,0.08,0.13l1.33,0.77c0.72,0.36,1.16-0.06,1.16-0.49v-5.54
			c0-0.08,0.06-0.14,0.14-0.14h0.62c0.08,0,0.14,0.06,0.14,0.14v5.54c0,0.96-0.53,1.52-1.44,1.52c-0.28,0-0.5,0-1.12-0.3l-1.28-0.73
			c-0.32-0.18-0.51-0.52-0.51-0.89v-5.61c0-0.36,0.19-0.71,0.51-0.89l4.87-2.81c0.31-0.17,0.72-0.17,1.02,0l4.86,2.81
			c0.31,0.18,0.51,0.52,0.51,0.89v5.61c0,0.36-0.2,0.7-0.51,0.89l-4.86,2.81C32.05,51.43,31.87,51.48,31.69,51.48"/>
		<path class="st2" d="M24.96,39c-0.17,0-0.34-0.05-0.49-0.13l-1.57-0.93l-1.9-1.08l-1.23-0.71c-0.3-0.18-0.49-0.51-0.49-0.86v-5.42
			c0-0.35,0.19-0.68,0.49-0.86l4.7-2.71c0.3-0.17,0.69-0.17,0.99,0l4.7,2.71c0.3,0.18,0.49,0.5,0.49,0.86v5.42
			c0,0.35-0.19,0.68-0.49,0.86l-4.7,2.71C25.3,38.95,25.13,38.99,24.96,39"/>
		<path class="st2" d="M33.19,47.62c-2.13,0-2.57-0.98-2.57-1.8c0-0.08,0.06-0.14,0.14-0.14h0.63c0.07,0,0.13,0.05,0.14,0.12
			c0.09,0.64,0.38,0.96,1.66,0.96c1.02,0,1.46-0.23,1.46-0.77c0-0.31-0.12-0.55-1.72-0.7c-1.33-0.13-2.15-0.42-2.15-1.49
			c0-0.98,0.83-1.56,2.21-1.56c1.56,0,2.33,0.54,2.42,1.7c0,0.04-0.01,0.08-0.04,0.11c-0.03,0.03-0.06,0.05-0.1,0.05h-0.63
			c-0.07,0-0.12-0.05-0.14-0.11c-0.15-0.67-0.52-0.89-1.52-0.89c-1.12,0-1.25,0.39-1.25,0.68c0,0.35,0.15,0.46,1.66,0.66
			c1.49,0.2,2.2,0.48,2.2,1.53C35.61,47.02,34.73,47.62,33.19,47.62"/>
		<path class="st94" d="M16.64,29.54c0-0.22-0.12-0.43-0.31-0.54l-5.15-2.96c-0.09-0.05-0.18-0.08-0.28-0.08h-0.05
			c-0.1,0-0.2,0.03-0.28,0.08L5.4,28.99c-0.19,0.11-0.31,0.32-0.31,0.54l0.01,7.99c0,0.11,0.06,0.21,0.15,0.27
			c0.09,0.06,0.21,0.06,0.31,0l3.06-1.75c0.19-0.12,0.31-0.32,0.31-0.54v-3.73c0-0.22,0.12-0.43,0.31-0.54l1.3-0.75
			c0.1-0.06,0.2-0.08,0.31-0.08c0.11,0,0.22,0.03,0.31,0.08l1.3,0.75c0.19,0.11,0.31,0.32,0.31,0.54v3.73
			c0,0.22,0.12,0.43,0.31,0.54l3.06,1.75c0.1,0.06,0.22,0.06,0.31,0c0.09-0.05,0.15-0.16,0.15-0.27L16.64,29.54z M40.96,33.69
			c0,0.06-0.03,0.11-0.08,0.13l-1.77,1.02c-0.05,0.03-0.11,0.03-0.16,0l-1.77-1.02c-0.05-0.03-0.08-0.08-0.08-0.13v-2.04
			c0-0.06,0.03-0.11,0.08-0.14l1.77-1.02c0.05-0.03,0.11-0.03,0.16,0l1.77,1.02c0.05,0.03,0.08,0.08,0.08,0.14L40.96,33.69z
			 M41.43,18.56c-0.1-0.05-0.21-0.05-0.31,0c-0.09,0.06-0.15,0.16-0.15,0.27v7.91c0,0.08-0.04,0.15-0.11,0.19
			c-0.07,0.04-0.15,0.04-0.22,0l-1.29-0.74c-0.19-0.11-0.43-0.11-0.62,0l-5.15,2.98c-0.19,0.11-0.31,0.32-0.31,0.54v5.95
			c0,0.22,0.12,0.43,0.31,0.54l5.15,2.98c0.19,0.11,0.43,0.11,0.62,0l5.15-2.98c0.19-0.11,0.31-0.32,0.31-0.54V20.81
			c0-0.23-0.12-0.43-0.32-0.54L41.43,18.56z M58.6,31.6c0.19-0.11,0.31-0.32,0.31-0.54v-1.44c0-0.22-0.12-0.43-0.31-0.54l-5.12-2.97
			c-0.19-0.11-0.43-0.11-0.62,0l-5.15,2.97c-0.19,0.11-0.31,0.32-0.31,0.54v5.95c0,0.22,0.12,0.43,0.31,0.54l5.12,2.92
			c0.19,0.11,0.42,0.11,0.61,0l3.1-1.72c0.1-0.05,0.16-0.16,0.16-0.27s-0.06-0.22-0.16-0.27l-5.19-2.98
			c-0.1-0.05-0.16-0.16-0.16-0.27v-1.87c0-0.11,0.06-0.21,0.16-0.27l1.61-0.93c0.1-0.06,0.21-0.06,0.31,0l1.61,0.93
			c0.1,0.05,0.16,0.16,0.16,0.27v1.47c0,0.11,0.06,0.21,0.16,0.27c0.1,0.05,0.22,0.05,0.31,0L58.6,31.6z"/>
		<path class="st7" d="M53.09,31.32c0.04-0.02,0.08-0.02,0.12,0l0.99,0.57c0.04,0.02,0.06,0.06,0.06,0.1v1.14
			c0,0.04-0.02,0.08-0.06,0.1l-0.99,0.57c-0.04,0.02-0.08,0.02-0.12,0l-0.99-0.57c-0.04-0.02-0.06-0.06-0.06-0.1v-1.14
			c0-0.04,0.02-0.08,0.06-0.1L53.09,31.32z"/>
	</g>
</g>
</svg>
