<svg id="Layer_1" data-name="Layer 1" xmlns="http://www.w3.org/2000/svg" xmlns:xlink="http://www.w3.org/1999/xlink" viewBox="0 0 64 64"><defs><style>.cls-1{fill:#e5a229;}.cls-2{fill:#f1be21;}.cls-3{fill:#fff;}.cls-4{fill:#ebeaea;}.cls-5{fill:url(#linear-gradient);}.cls-6{fill:url(#linear-gradient-2);}</style><linearGradient id="linear-gradient" x1="23.53" y1="4.32" x2="30.47" y2="4.32" gradientUnits="userSpaceOnUse"><stop offset="0" stop-color="#e7e6e5"/><stop offset="1" stop-color="#fff"/></linearGradient><linearGradient id="linear-gradient-2" x1="33.42" y1="4.31" x2="40.47" y2="4.31" xlink:href="#linear-gradient"/></defs><title>Ico</title><polygon class="cls-1" points="54.73 12.54 32 12.54 32 12.54 9.27 12.54 13.53 58.77 32 64 32 64 32 64 32 64 32 64 50.47 58.77 54.73 12.54"/><polygon class="cls-2" points="32 16.31 32 60.09 32 60.09 46.96 55.84 50.6 16.31 32 16.31"/><polygon class="cls-3" points="43.91 21.98 20.89 21.98 19.3 39.29 19.33 39.18 38.88 39.18 38.24 46.5 32 48.29 25.67 46.47 25.29 42.04 19.54 42.04 20.37 50.9 32 54.2 43.63 50.9 45.24 33.52 24.49 33.52 24.76 27.73 39.16 27.73 39.37 31.04 45.17 31.04 43.91 21.98"/><path class="cls-4" d="M32,22H20.89L19.3,39.29l0-.11H32V33.52H25.3l.26-5.79H32ZM25.29,42H19.54l.83,8.86L32,54.19v-5.9l-6.33-1.82Z"/><polygon class="cls-5" points="27.57 5.73 23.53 5.73 23.53 8.63 27.57 8.63 29.74 8.63 30.47 8.63 30.47 0 27.57 0 27.57 5.73"/><path class="cls-6" d="M40.47,0h-7v3c.94.95,1.43,1.4,2.79,2.76H33.42V8.58h7V5.82L37.65,3.06h2.82Z"/></svg>