<svg id="Layer_1" data-name="Layer 1" xmlns="http://www.w3.org/2000/svg" viewBox="0 0 64 64"><defs><style>.cls-1,.cls-2{fill-rule:evenodd;}.cls-2{fill:#999;}</style></defs><title>Ico</title><path class="cls-1" d="M.34,36.36c3.62.15,7.08.33,10.56.44a19.26,19.26,0,0,0,3.39-.23c.29,0,.66-.58.74-.94s.19-1.17-.61-1.29a18.68,18.68,0,0,0-2-.16H4.58V29.8h1.1c2.75-.05,5.49-.11,8.25-.13.91,0,1.17-.43,1.15-1.3s-.51-1-1.2-1a56.12,56.12,0,0,0-12.82.43c-.2,0-.42,0-.7,0-.12-1.53-.23-3-.36-4.65,2.79-.15,5.45-.38,8.11-.41s5.54.18,8.32.22,3.71,1.89,3.87,4.24a5.68,5.68,0,0,1-1.48,4.75c1.69,1.93,1.78,4.14,1.21,6.43A3.22,3.22,0,0,1,16.82,41,78.14,78.14,0,0,1,.93,40.81c-.76-.08-.92-.37-.86-1C.18,38.61.26,37.45.34,36.36Zm17-4.29a9.12,9.12,0,0,0,1.6-1.82,6.08,6.08,0,0,0,0-4.91,2.21,2.21,0,0,0-1.88-1.47,69.81,69.81,0,0,0-15.36,0A1,1,0,0,0,1,24.5a16.37,16.37,0,0,0,0,2.21c2.75-.11,5.22-.25,7.71-.3,1.86,0,3.73,0,5.6.08,1.22.07,1.72.83,1.68,2.14s-.56,1.77-1.72,1.85c-1.45.1-2.92.17-4.39.21s-2.9,0-4.4,0v2.57c1.1,0,2.12,0,3.14,0,1.91,0,3.82.08,5.71.2,1.21.09,1.7.79,1.66,2.13s-.62,1.87-1.8,1.91c-1.95.06-3.89.07-5.83,0-2.37,0-4.75-.15-7.24-.24,0,.58,0,1.19-.12,1.79s.21.94.84,1a73.21,73.21,0,0,0,15,.06,2.5,2.5,0,0,0,2.26-1.78A5.21,5.21,0,0,0,17.34,32.07Z"/><path class="cls-2" d="M17.34,32.07a5.21,5.21,0,0,1,1.78,6.29,2.5,2.5,0,0,1-2.26,1.78,73.21,73.21,0,0,1-15-.06c-.63,0-.93-.32-.84-1s.08-1.21.12-1.79c2.49.09,4.87.21,7.24.24,1.94,0,3.88,0,5.83,0,1.18,0,1.75-.7,1.8-1.91s-.45-2-1.66-2.13c-1.89-.12-3.8-.15-5.71-.2-1,0-2,0-3.14,0V30.7c1.5,0,2.95,0,4.4,0s2.94-.11,4.39-.21c1.16-.08,1.66-.66,1.72-1.85s-.46-2.07-1.68-2.14c-1.87-.1-3.74-.12-5.6-.08-2.49.05-5,.19-7.71.3A16.37,16.37,0,0,1,1,24.5a1,1,0,0,1,.72-.59,69.81,69.81,0,0,1,15.36,0A2.21,2.21,0,0,1,19,25.34a6.08,6.08,0,0,1,0,4.91A9.12,9.12,0,0,1,17.34,32.07Z"/><path class="cls-2" d="M63,37.37a13.35,13.35,0,0,1,0,2.08c0,.25-.53.58-.84.6-2.72.13-3.6.62-8.32.62A47.63,47.63,0,0,1,47,40.1a2.24,2.24,0,0,1-2.08-1.69,6.1,6.1,0,0,1,.12-4.6,9.4,9.4,0,0,1,1.62-1.92c-2.49-1.4-2.3-3.73-1.81-6.1a2.41,2.41,0,0,1,2.31-2,75.49,75.49,0,0,1,15,.06c.57.05.89.23.82.88s-.06,1.31-.09,2c-.88-.06-1.66-.14-2.45-.16-3.38-.08-6.74-.18-10.12-.18-1.92,0-2.76,1.15-2.22,2.83a1.51,1.51,0,0,0,1.51,1.19c2.53.06,5,.14,7.58.21.18,0,.36,0,.63.05v2.52c-.46,0-.93,0-1.39,0-2.28.06-4.54.14-6.81.21-1.12,0-1.52.74-1.62,1.71-.11,1.22.32,1.94,1.34,2.17a6.55,6.55,0,0,0,1.52.16Z"/><path class="cls-2" d="M39.16,23.87a2.39,2.39,0,0,1,2.22,1.83,5.23,5.23,0,0,1,.26,1.62c0,3.11,0,6.23,0,9.34,0,1.37-.32,2.69-1.75,3.26a5.6,5.6,0,0,1-2.16.35c-4.75,0-9.5-.11-14.26-.21a5.8,5.8,0,0,1-1.21-.25V24.09L26,23.46ZM26.62,26.66c-.56,0-.88.17-.88.82,0,3,0,6,0,9,0,.27.41.75.63.75,3.4.07,6.8.08,10.2.07a1.5,1.5,0,0,0,1.55-1.66q.08-3.67,0-7.37a1.53,1.53,0,0,0-1.56-1.65Z"/><path class="cls-1" d="M36.6,26.64a1.53,1.53,0,0,1,1.56,1.65q.08,3.69,0,7.37a1.5,1.5,0,0,1-1.55,1.66c-3.4,0-6.8,0-10.2-.07-.22,0-.62-.48-.63-.75,0-3,0-6,0-9,0-.65.32-.79.88-.82m0,.79v8.93c3.53,0,6.69.2,9.87.12.74-.06.85-.57.85-1.16,0-2.23,0-4.47,0-6.7,0-.85-.39-1.19-1.18-1.23Z"/><path class="cls-1" d="M21.35,31.92c0-2.56,0-5.13,0-7.7,0-.74.21-1,1-1,4.86-.12,9.74-.15,14.6-.26a12.14,12.14,0,0,1,2.6.12,3.36,3.36,0,0,1,2.82,3.09c.09,3.92.1,7.84,0,11.75A3.36,3.36,0,0,1,39.08,41a86.9,86.9,0,0,1-17-.21c-.77-.08-.74-.53-.74-1.06Zm.91-7.83V39.81a5.8,5.8,0,0,0,1.21.25c4.76.1,9.51.18,14.26.21a5.6,5.6,0,0,0,2.16-.35c1.43-.57,1.74-1.89,1.75-3.26,0-3.11,0-6.23,0-9.34a5.23,5.23,0,0,0-.26-1.62,2.39,2.39,0,0,0-2.22-1.83c-4.47-.08-8.92-.15-13.38-.17A33.52,33.52,0,0,0,22.26,24.09Z"/><path class="cls-1" d="M63.69,36.63c.1,1.46.31,4.23.31,4.23s-2.93.29-4.34.3c-4,0-8-.09-12.07-.14-2.85,0-3.51-1.77-3.86-3.78A6.61,6.61,0,0,1,45.18,32a5.71,5.71,0,0,1-1.48-4.62c.13-2.74,1.34-4.32,3.91-4.47A91,91,0,0,1,64,23.25c-.11,1.56-.22,3-.34,4.55-1-.09-2-.24-2.92-.26-3.51-.09-7-.12-10.53-.18-.92,0-1.36.31-1.28,1.3,0,.62.23,1,.89,1l7.37.17h1.59v4.37c-.91,0-1.85,0-2.78,0-2,0-4,.12-6,.15-.84,0-1,.42-1,1.18s.33,1,1,1.09Zm-.68.74-12.12.15a6.55,6.55,0,0,1-1.52-.16c-1-.23-1.45-1-1.34-2.17.1-1,.5-1.68,1.62-1.71,2.27-.07,4.53-.15,6.81-.21.46,0,.93,0,1.39,0V30.75c-.27,0-.45-.05-.63-.05-2.53-.07-5-.15-7.58-.21a1.51,1.51,0,0,1-1.51-1.19c-.54-1.68.3-2.84,2.22-2.83,3.38,0,6.74.1,10.12.18.79,0,1.57.1,2.45.16,0-.74,0-1.4.09-2s-.25-.83-.82-.88a75.49,75.49,0,0,0-15-.06,2.41,2.41,0,0,0-2.31,2c-.49,2.37-.68,4.7,1.81,6.1A9.4,9.4,0,0,0,45,33.81a6.1,6.1,0,0,0-.12,4.6A2.31,2.31,0,0,0,47,40.1a67.83,67.83,0,0,0,15.14-.05c.31,0,.8-.35.84-.6A13.35,13.35,0,0,0,63,37.37Z"/></svg>