<svg id="Layer_1" data-name="Layer 1" xmlns="http://www.w3.org/2000/svg" viewBox="0 0 64 64"><defs><style>.cls-1{fill:#2e76bb;}</style></defs><title>Ico</title><path id="path5" class="cls-1" d="M29.32,5Q46.63,2.38,64,0q0,15.17,0,30.33c-11.56,0-23.12.22-34.68.25q0-12.78,0-25.56Z"/><path id="path7" class="cls-1" d="M0,9.1C8.69,7.76,17.42,6.61,26.15,5.52q0,12.59,0,25.15c-8.73,0-17.45.12-26.17.1V9.1Z"/><path id="path29" class="cls-1" d="M0,33.41c8.71,0,17.43.11,26.14.1,0,8.4,0,16.81,0,25.22C17.44,57.44,8.72,56.32,0,55.14Z"/><path id="path31" class="cls-1" d="M29.27,33.75H64C64,43.83,64,53.91,64,64c-11.54-1.73-23.11-3.33-34.67-4.89Q29.29,46.43,29.27,33.75Z"/></svg>